<?xml version="1.0" encoding="UTF-8"?>
<!DOCTYPE svg PUBLIC "-//W3C//DTD SVG 1.1//EN" "http://www.w3.org/Graphics/SVG/1.1/DTD/svg11.dtd">
<svg xmlns="http://www.w3.org/2000/svg" xmlns:xlink="http://www.w3.org/1999/xlink" version="1.1" width="366px" height="246px" viewBox="-0.5 -0.5 366 246"><defs/><g><path d="M 83 63 L 123 83 L 83 103 Z" fill="none" stroke="#5f43b2" stroke-width="6" stroke-miterlimit="10" transform="rotate(-180,103,83)" pointer-events="all"/><path d="M 83 123 L 123 143 L 83 163 Z" fill="none" stroke="#5f43b2" stroke-width="6" stroke-miterlimit="10" pointer-events="all"/><path d="M 83 143 L 123 163 L 83 183 Z" fill="none" stroke="#5f43b2" stroke-width="6" stroke-miterlimit="10" transform="rotate(-180,103,163)" pointer-events="all"/><path d="M 3 23 L 43 43 L 3 63 Z" fill="none" stroke="#5f43b2" stroke-width="6" stroke-miterlimit="10" transform="rotate(-180,23,43)" pointer-events="all"/><path d="M 3 43 L 43 63 L 3 83 Z" fill="none" stroke="#5f43b2" stroke-width="6" stroke-miterlimit="10" pointer-events="all"/><path d="M 3 63 L 43 83 L 3 103 Z" fill="none" stroke="#5f43b2" stroke-width="6" stroke-miterlimit="10" transform="rotate(-180,23,83)" pointer-events="all"/><path d="M 3 83 L 43 103 L 3 123 Z" fill="none" stroke="#5f43b2" stroke-width="6" stroke-miterlimit="10" pointer-events="all"/><path d="M 3 103 L 43 123 L 3 143 Z" fill="none" stroke="#5f43b2" stroke-width="6" stroke-miterlimit="10" transform="rotate(-180,23,123)" pointer-events="all"/><path d="M 3 123 L 43 143 L 3 163 Z" fill="none" stroke="#5f43b2" stroke-width="6" stroke-miterlimit="10" pointer-events="all"/><path d="M 3 143 L 43 163 L 3 183 Z" fill="none" stroke="#5f43b2" stroke-width="6" stroke-miterlimit="10" transform="rotate(-180,23,163)" pointer-events="all"/><path d="M 3 163 L 43 183 L 3 203 Z" fill="none" stroke="#5f43b2" stroke-width="6" stroke-miterlimit="10" pointer-events="all"/><path d="M 43 103 L 83 123 L 43 143 Z" fill="none" stroke="#5f43b2" stroke-width="6" stroke-miterlimit="10" pointer-events="all"/><path d="M 43 83 L 83 103 L 43 123 Z" fill="none" stroke="#5f43b2" stroke-width="6" stroke-miterlimit="10" transform="rotate(-180,63,103)" pointer-events="all"/><path d="M 123 63 L 163 83 L 123 103 Z" fill="none" stroke="#5f43b2" stroke-width="6" stroke-miterlimit="10" pointer-events="all"/><path d="M 123 43 L 163 63 L 123 83 Z" fill="none" stroke="#5f43b2" stroke-width="6" stroke-miterlimit="10" transform="rotate(-180,143,63)" pointer-events="all"/><path d="M 123 23 L 163 43 L 123 63 Z" fill="none" stroke="#5f43b2" stroke-width="6" stroke-miterlimit="10" pointer-events="all"/><path d="M 3 183 L 43 203 L 3 223 Z" fill="none" stroke="#5f43b2" stroke-width="6" stroke-miterlimit="10" transform="rotate(-180,23,203)" pointer-events="all"/><path d="M 43 123 L 83 143 L 43 163 Z" fill="none" stroke="#5f43b2" stroke-width="6" stroke-miterlimit="10" transform="rotate(-180,63,143)" pointer-events="all"/><path d="M 123 143 L 163 163 L 123 183 Z" fill="none" stroke="#5f43b2" stroke-width="6" stroke-miterlimit="10" pointer-events="all"/><path d="M 203 43 L 243 63 L 203 83 Z" fill="none" stroke="#5f43b2" stroke-width="6" stroke-miterlimit="10" pointer-events="all"/><path d="M 203 63 L 243 83 L 203 103 Z" fill="none" stroke="#5f43b2" stroke-width="6" stroke-miterlimit="10" transform="rotate(-180,223,83)" pointer-events="all"/><path d="M 203 83 L 243 103 L 203 123 Z" fill="none" stroke="#5f43b2" stroke-width="6" stroke-miterlimit="10" pointer-events="all"/><path d="M 203 103 L 243 123 L 203 143 Z" fill="none" stroke="#5f43b2" stroke-width="6" stroke-miterlimit="10" transform="rotate(-180,223,123)" pointer-events="all"/><path d="M 203 123 L 243 143 L 203 163 Z" fill="none" stroke="#5f43b2" stroke-width="6" stroke-miterlimit="10" pointer-events="all"/><path d="M 203 143 L 243 163 L 203 183 Z" fill="none" stroke="#5f43b2" stroke-width="6" stroke-miterlimit="10" transform="rotate(-180,223,163)" pointer-events="all"/><path d="M 203 163 L 243 183 L 203 203 Z" fill="none" stroke="#5f43b2" stroke-width="6" stroke-miterlimit="10" pointer-events="all"/><path d="M 203 183 L 243 203 L 203 223 Z" fill="none" stroke="#5f43b2" stroke-width="6" stroke-miterlimit="10" transform="rotate(-180,223,203)" pointer-events="all"/><path d="M 203 203 L 243 223 L 203 243 Z" fill="none" stroke="#5f43b2" stroke-width="6" stroke-miterlimit="10" pointer-events="all"/><path d="M 283 163 L 323 183 L 283 203 Z" fill="none" stroke="#5f43b2" stroke-width="6" stroke-miterlimit="10" pointer-events="all"/><path d="M 283 183 L 323 203 L 283 223 Z" fill="none" stroke="#5f43b2" stroke-width="6" stroke-miterlimit="10" transform="rotate(-180,303,203)" pointer-events="all"/><path d="M 243 183 L 283 203 L 243 223 Z" fill="none" stroke="#5f43b2" stroke-width="6" stroke-miterlimit="10" pointer-events="all"/><path d="M 243 163 L 283 183 L 243 203 Z" fill="none" stroke="#5f43b2" stroke-width="6" stroke-miterlimit="10" transform="rotate(-180,263,183)" pointer-events="all"/><path d="M 123 163 L 163 183 L 123 203 Z" fill="none" stroke="#5f43b2" stroke-width="6" stroke-miterlimit="10" transform="translate(0,183)scale(1,-1)translate(0,-183)rotate(180,143,183)" pointer-events="all"/><path d="M 123 183 L 163 203 L 123 223 Z" fill="none" stroke="#5f43b2" stroke-width="6" stroke-miterlimit="10" transform="translate(0,203)scale(1,-1)translate(0,-203)" pointer-events="all"/><path d="M 323 203 L 363 223 L 323 243 Z" fill="none" stroke="#5f43b2" stroke-width="6" stroke-miterlimit="10" transform="rotate(-180,343,223)" pointer-events="all"/><path d="M 323 183 L 363 203 L 323 223 Z" fill="none" stroke="#5f43b2" stroke-width="6" stroke-miterlimit="10" pointer-events="all"/><path d="M 323 143 L 363 163 L 323 183 Z" fill="none" stroke="#5f43b2" stroke-width="6" stroke-miterlimit="10" pointer-events="all"/><path d="M 323 123 L 363 143 L 323 163 Z" fill="none" stroke="#5f43b2" stroke-width="6" stroke-miterlimit="10" transform="rotate(-180,343,143)" pointer-events="all"/><path d="M 323 103 L 363 123 L 323 143 Z" fill="none" stroke="#5f43b2" stroke-width="6" stroke-miterlimit="10" pointer-events="all"/><path d="M 323 163 L 363 183 L 323 203 Z" fill="none" stroke="#5f43b2" stroke-width="6" stroke-miterlimit="10" transform="rotate(-180,343,183)" pointer-events="all"/><path d="M 323 43 L 363 63 L 323 83 Z" fill="none" stroke="#5f43b2" stroke-width="6" stroke-miterlimit="10" transform="translate(0,63)scale(1,-1)translate(0,-63)rotate(180,343,63)" pointer-events="all"/><path d="M 323 83 L 363 103 L 323 123 Z" fill="none" stroke="#5f43b2" stroke-width="6" stroke-miterlimit="10" transform="translate(0,103)scale(1,-1)translate(0,-103)rotate(-180,343,103)" pointer-events="all"/><path d="M 323 63 L 363 83 L 323 103 Z" fill="none" stroke="#5f43b2" stroke-width="6" stroke-miterlimit="10" transform="translate(0,83)scale(1,-1)translate(0,-83)" pointer-events="all"/><path d="M 83 83 L 123 103 L 83 123 Z" fill="none" stroke="#5f43b2" stroke-width="6" stroke-miterlimit="10" pointer-events="all"/><path d="M 123 3 L 163 23 L 123 43 Z" fill="none" stroke="#5f43b2" stroke-width="6" stroke-miterlimit="10" transform="rotate(-180,143,23)" pointer-events="all"/><path d="M 3 3 L 43 23 L 3 43 Z" fill="none" stroke="#5f43b2" stroke-width="6" stroke-miterlimit="10" pointer-events="all"/><path d="M 123 203 L 163 223 L 123 243 Z" fill="none" stroke="#5f43b2" stroke-width="6" stroke-miterlimit="10" transform="translate(0,223)scale(1,-1)translate(0,-223)rotate(180,143,223)" pointer-events="all"/><path d="M 3 203 L 43 223 L 3 243 Z" fill="none" stroke="#5f43b2" stroke-width="6" stroke-miterlimit="10" pointer-events="all"/><path d="M 203 23 L 243 43 L 203 63 Z" fill="none" stroke="#5f43b2" stroke-width="6" stroke-miterlimit="10" transform="translate(0,43)scale(1,-1)translate(0,-43)rotate(180,223,43)" pointer-events="all"/><path d="M 323 23 L 363 43 L 323 63 Z" fill="none" stroke="#5f43b2" stroke-width="6" stroke-miterlimit="10" pointer-events="all"/><path d="M 203 3 L 243 23 L 203 43 Z" fill="none" stroke="#5f43b2" stroke-width="6" stroke-miterlimit="10" pointer-events="all"/><path d="M 323 3 L 363 23 L 323 43 Z" fill="none" stroke="#5f43b2" stroke-width="6" stroke-miterlimit="10" transform="rotate(-180,343,23)" pointer-events="all"/></g></svg>