<svg width="2605" height="537" viewBox="0 0 2605 537" fill="none" xmlns="http://www.w3.org/2000/svg">
<path id="Vector 1" d="M41.5 536.5L665.5 0.5M249.5 536.5L770 0.5M454.5 536.5L886 0.5M671 536.5L986 0.5M879.5 536.5L1091.5 0.5M1090.5 536.5L1196 0.5M2563 536.5L1939 0.5M2355 536.5L1834.5 0.5M2150 536.5L1718.5 0.5M1933.5 536.5L1618.5 0.5M1725 536.5L1513 0.5M1514 536.5L1408.5 0.5M1302 536.5V0.5M1 204L354.5 0.5M1 130L245 0.5M1 71L129 0.5M1 292.5L460.5 0.5M1 412L568 0.5M2604 204L2250.5 0.5M2604 130L2360 0.5M2604 71L2476 0.5M2604 292.5L2144.5 0.5M2604 412L2037 0.5" stroke="white"/>
</svg>
